<svg xmlns="http://www.w3.org/2000/svg" width="1440" height="900"><path d="M708,444L716,347L613,330Z" fill="#8cb2d5" stroke="#8cb2d5" stroke-width="1.51"/><path d="M613,330L602,458L708,444Z" fill="#89b1d4" stroke="#89b1d4" stroke-width="1.51"/><path d="M602,458L595,553L708,444Z" fill="#79a9cf" stroke="#79a9cf" stroke-width="1.51"/><path d="M716,347L704,220L613,330Z" fill="#9bb9d9" stroke="#9bb9d9" stroke-width="1.51"/><path d="M472,333L487,465L602,458Z" fill="#97b7d7" stroke="#97b7d7" stroke-width="1.51"/><path d="M602,458L487,465L595,553Z" fill="#82add1" stroke="#82add1" stroke-width="1.51"/><path d="M472,333L602,458L613,330Z" fill="#9cb9d8" stroke="#9cb9d8" stroke-width="1.51"/><path d="M704,220L615,211L613,330Z" fill="#a8bedc" stroke="#a8bedc" stroke-width="1.51"/><path d="M708,444L843,437L716,347Z" fill="#79aad0" stroke="#79aad0" stroke-width="1.51"/><path d="M716,347L827,220L704,220Z" fill="#99b7d8" stroke="#99b7d8" stroke-width="1.51"/><path d="M733,571L843,437L708,444Z" fill="#66a2cb" stroke="#66a2cb" stroke-width="1.51"/><path d="M483,200L472,333L613,330Z" fill="#b2c2de" stroke="#b2c2de" stroke-width="1.51"/><path d="M843,437L844,338L716,347Z" fill="#7baacf" stroke="#7baacf" stroke-width="1.51"/><path d="M595,553L733,571L708,444Z" fill="#69a3cb" stroke="#69a3cb" stroke-width="1.51"/><path d="M487,465L489,558L595,553Z" fill="#80abd1" stroke="#80abd1" stroke-width="1.51"/><path d="M595,553L702,678L733,571Z" fill="#5c99c7" stroke="#5c99c7" stroke-width="1.51"/><path d="M369,578L489,558L487,465Z" fill="#88aed3" stroke="#88aed3" stroke-width="1.51"/><path d="M844,338L827,220L716,347Z" fill="#8bb0d4" stroke="#8bb0d4" stroke-width="1.51"/><path d="M704,220L710,90L615,211Z" fill="#b0c4df" stroke="#b0c4df" stroke-width="1.51"/><path d="M615,211L483,200L613,330Z" fill="#b3c3df" stroke="#b3c3df" stroke-width="1.51"/><path d="M604,87L483,200L615,211Z" fill="#bfcbe3" stroke="#bfcbe3" stroke-width="1.51"/><path d="M733,571L848,570L843,437Z" fill="#549ac6" stroke="#549ac6" stroke-width="1.51"/><path d="M843,437L950,321L844,338Z" fill="#72a5cd" stroke="#72a5cd" stroke-width="1.51"/><path d="M585,684L702,678L595,553Z" fill="#6196c5" stroke="#6196c5" stroke-width="1.51"/><path d="M733,571L846,687L848,570Z" fill="#448fc1" stroke="#448fc1" stroke-width="1.51"/><path d="M489,558L585,684L595,553Z" fill="#70a0cb" stroke="#70a0cb" stroke-width="1.51"/><path d="M844,338L950,321L827,220Z" fill="#83acd1" stroke="#83acd1" stroke-width="1.51"/><path d="M965,467L950,321L843,437Z" fill="#639ec9" stroke="#639ec9" stroke-width="1.51"/><path d="M827,220L710,90L704,220Z" fill="#a7bfdc" stroke="#a7bfdc" stroke-width="1.51"/><path d="M835,83L710,90L827,220Z" fill="#a7c1dd" stroke="#a7c1dd" stroke-width="1.51"/><path d="M710,90L604,87L615,211Z" fill="#bacbe2" stroke="#bacbe2" stroke-width="1.51"/><path d="M472,333L340,463L487,465Z" fill="#a1bbda" stroke="#a1bbda" stroke-width="1.51"/><path d="M359,195L347,341L472,333Z" fill="#c1c9e2" stroke="#c1c9e2" stroke-width="1.51"/><path d="M848,570L965,467L843,437Z" fill="#5099c5" stroke="#5099c5" stroke-width="1.51"/><path d="M347,341L340,463L472,333Z" fill="#b0c2de" stroke="#b0c2de" stroke-width="1.51"/><path d="M489,558L491,707L585,684Z" fill="#6f9ac8" stroke="#6f9ac8" stroke-width="1.51"/><path d="M846,687L948,568L848,570Z" fill="#348bbd" stroke="#348bbd" stroke-width="1.51"/><path d="M848,570L948,568L965,467Z" fill="#3e91c1" stroke="#3e91c1" stroke-width="1.51"/><path d="M340,463L369,578L487,465Z" fill="#95b5d6" stroke="#95b5d6" stroke-width="1.51"/><path d="M702,678L846,687L733,571Z" fill="#488dc0" stroke="#488dc0" stroke-width="1.51"/><path d="M833,809L846,687L702,678Z" fill="#3d82b4" stroke="#3d82b4" stroke-width="1.51"/><path d="M483,200L359,195L472,333Z" fill="#c4cbe3" stroke="#c4cbe3" stroke-width="1.51"/><path d="M462,73L359,195L483,200Z" fill="#d0d3e7" stroke="#d0d3e7" stroke-width="1.51"/><path d="M953,191L835,83L827,220Z" fill="#98b8d7" stroke="#98b8d7" stroke-width="1.51"/><path d="M710,90L614,-24L604,87Z" fill="#c1d1e6" stroke="#c1d1e6" stroke-width="1.51"/><path d="M585,684L615,817L702,678Z" fill="#598bba" stroke="#598bba" stroke-width="1.51"/><path d="M363,677L491,707L489,558Z" fill="#799ecb" stroke="#799ecb" stroke-width="1.51"/><path d="M950,321L953,191L827,220Z" fill="#88aed2" stroke="#88aed2" stroke-width="1.51"/><path d="M1091,192L953,191L950,321Z" fill="#85a6ce" stroke="#85a6ce" stroke-width="1.51"/><path d="M604,87L462,73L483,200Z" fill="#cbd3e7" stroke="#cbd3e7" stroke-width="1.51"/><path d="M614,-24L462,73L604,87Z" fill="#ccd6e9" stroke="#ccd6e9" stroke-width="1.51"/><path d="M369,578L363,677L489,558Z" fill="#83a7cf" stroke="#83a7cf" stroke-width="1.51"/><path d="M245,578L363,677L369,578Z" fill="#8babd1" stroke="#8babd1" stroke-width="1.51"/><path d="M711,-46L614,-24L710,90Z" fill="#c1d1e6" stroke="#c1d1e6" stroke-width="1.51"/><path d="M340,463L245,578L369,578Z" fill="#96b5d6" stroke="#96b5d6" stroke-width="1.51"/><path d="M347,341L238,432L340,463Z" fill="#b0c3de" stroke="#b0c3de" stroke-width="1.51"/><path d="M240,329L238,432L347,341Z" fill="#bcc9e2" stroke="#bcc9e2" stroke-width="1.51"/><path d="M239,201L240,329L347,341Z" fill="#cbd0e6" stroke="#cbd0e6" stroke-width="1.51"/><path d="M239,201L347,341L359,195Z" fill="#d0d1e7" stroke="#d0d1e7" stroke-width="1.51"/><path d="M491,707L615,817L585,684Z" fill="#638ebb" stroke="#638ebb" stroke-width="1.51"/><path d="M494,824L615,817L491,707Z" fill="#658bb4" stroke="#658bb4" stroke-width="1.51"/><path d="M462,73L339,97L359,195Z" fill="#dad9ea" stroke="#dad9ea" stroke-width="1.51"/><path d="M351,-25L339,97L462,73Z" fill="#e1dfee" stroke="#e1dfee" stroke-width="1.51"/><path d="M965,467L1087,337L950,321Z" fill="#6699c7" stroke="#6699c7" stroke-width="1.51"/><path d="M1092,458L1087,337L965,467Z" fill="#5791c3" stroke="#5791c3" stroke-width="1.51"/><path d="M846,687L976,692L948,568Z" fill="#2781b9" stroke="#2781b9" stroke-width="1.51"/><path d="M1084,582L1092,458L965,467Z" fill="#3f89be" stroke="#3f89be" stroke-width="1.51"/><path d="M948,818L976,692L846,687Z" fill="#2078ae" stroke="#2078ae" stroke-width="1.51"/><path d="M836,-32L711,-46L710,90Z" fill="#b8cce3" stroke="#b8cce3" stroke-width="1.51"/><path d="M836,-32L710,90L835,83Z" fill="#afc7e0" stroke="#afc7e0" stroke-width="1.51"/><path d="M1084,582L965,467L948,568Z" fill="#3689bd" stroke="#3689bd" stroke-width="1.51"/><path d="M615,817L733,826L702,678Z" fill="#4e84b1" stroke="#4e84b1" stroke-width="1.51"/><path d="M238,432L245,578L340,463Z" fill="#a2bddb" stroke="#a2bddb" stroke-width="1.51"/><path d="M953,191L974,70L835,83Z" fill="#9ab8d8" stroke="#9ab8d8" stroke-width="1.51"/><path d="M1076,74L974,70L953,191Z" fill="#96b1d5" stroke="#96b1d5" stroke-width="1.51"/><path d="M733,826L833,809L702,678Z" fill="#4180af" stroke="#4180af" stroke-width="1.51"/><path d="M339,97L239,201L359,195Z" fill="#dbdaeb" stroke="#dbdaeb" stroke-width="1.51"/><path d="M240,329L120,330L238,432Z" fill="#c3cee5" stroke="#c3cee5" stroke-width="1.51"/><path d="M974,70L836,-32L835,83Z" fill="#a4c1dd" stroke="#a4c1dd" stroke-width="1.51"/><path d="M615,817L726,945L733,826Z" fill="#47759b" stroke="#47759b" stroke-width="1.51"/><path d="M356,815L494,824L491,707Z" fill="#708fb7" stroke="#708fb7" stroke-width="1.51"/><path d="M356,815L491,707L363,677Z" fill="#7997c0" stroke="#7997c0" stroke-width="1.51"/><path d="M976,692L1084,582L948,568Z" fill="#247fb8" stroke="#247fb8" stroke-width="1.51"/><path d="M614,-24L480,-49L462,73Z" fill="#d5dbeb" stroke="#d5dbeb" stroke-width="1.51"/><path d="M598,-153L480,-49L614,-24Z" fill="#d0d8ea" stroke="#d0d8ea" stroke-width="1.51"/><path d="M1087,337L1091,192L950,321Z" fill="#789eca" stroke="#789eca" stroke-width="1.51"/><path d="M1205,332L1091,192L1087,337Z" fill="#7397c3" stroke="#7397c3" stroke-width="1.51"/><path d="M339,97L224,101L239,201Z" fill="#e2dfee" stroke="#e2dfee" stroke-width="1.51"/><path d="M480,-49L351,-25L462,73Z" fill="#e0e0ee" stroke="#e0e0ee" stroke-width="1.51"/><path d="M245,578L245,703L363,677Z" fill="#8ba6cf" stroke="#8ba6cf" stroke-width="1.51"/><path d="M115,697L245,703L245,578Z" fill="#91aad2" stroke="#91aad2" stroke-width="1.51"/><path d="M976,692L1078,702L1084,582Z" fill="#1475b2" stroke="#1475b2" stroke-width="1.51"/><path d="M833,809L948,818L846,687Z" fill="#2977aa" stroke="#2977aa" stroke-width="1.51"/><path d="M822,943L948,818L833,809Z" fill="#276b96" stroke="#276b96" stroke-width="1.51"/><path d="M245,703L356,815L363,677Z" fill="#819bc3" stroke="#819bc3" stroke-width="1.51"/><path d="M221,-27L224,101L339,97Z" fill="#eae6f2" stroke="#eae6f2" stroke-width="1.51"/><path d="M114,214L120,330L240,329Z" fill="#d3d7ea" stroke="#d3d7ea" stroke-width="1.51"/><path d="M238,432L124,566L245,578Z" fill="#a2bddb" stroke="#a2bddb" stroke-width="1.51"/><path d="M1209,582L1195,438L1092,458Z" fill="#3e81b4" stroke="#3e81b4" stroke-width="1.51"/><path d="M1082,808L1078,702L976,692Z" fill="#0d6da8" stroke="#0d6da8" stroke-width="1.51"/><path d="M1091,192L1076,74L953,191Z" fill="#8ea9d1" stroke="#8ea9d1" stroke-width="1.51"/><path d="M974,70L968,-52L836,-32Z" fill="#a4c0dd" stroke="#a4c0dd" stroke-width="1.51"/><path d="M114,214L240,329L239,201Z" fill="#d9d9ea" stroke="#d9d9ea" stroke-width="1.51"/><path d="M1092,458L1195,438L1087,337Z" fill="#568cbd" stroke="#568cbd" stroke-width="1.51"/><path d="M1091,192L1209,95L1076,74Z" fill="#8ea5cc" stroke="#8ea5cc" stroke-width="1.51"/><path d="M1209,582L1092,458L1084,582Z" fill="#2d7fb4" stroke="#2d7fb4" stroke-width="1.51"/><path d="M1080,-22L968,-52L974,70Z" fill="#9fb8d9" stroke="#9fb8d9" stroke-width="1.51"/><path d="M730,-168L598,-153L711,-46Z" fill="#c1d1e7" stroke="#c1d1e7" stroke-width="1.51"/><path d="M711,-46L598,-153L614,-24Z" fill="#c6d4e7" stroke="#c6d4e7" stroke-width="1.51"/><path d="M120,330L116,451L238,432Z" fill="#bdcde4" stroke="#bdcde4" stroke-width="1.51"/><path d="M480,-49L363,-169L351,-25Z" fill="#e3e2ef" stroke="#e3e2ef" stroke-width="1.51"/><path d="M825,-145L711,-46L836,-32Z" fill="#b3cae2" stroke="#b3cae2" stroke-width="1.51"/><path d="M1195,438L1205,332L1087,337Z" fill="#608dbc" stroke="#608dbc" stroke-width="1.51"/><path d="M494,824L599,946L615,817Z" fill="#597c9f" stroke="#597c9f" stroke-width="1.51"/><path d="M733,826L822,943L833,809Z" fill="#356f99" stroke="#356f99" stroke-width="1.51"/><path d="M468,930L599,946L494,824Z" fill="#5c7897" stroke="#5c7897" stroke-width="1.51"/><path d="M599,946L726,945L615,817Z" fill="#4a7194" stroke="#4a7194" stroke-width="1.51"/><path d="M116,451L124,566L238,432Z" fill="#adc5df" stroke="#adc5df" stroke-width="1.51"/><path d="M968,-52L825,-145L836,-32Z" fill="#a8c4df" stroke="#a8c4df" stroke-width="1.51"/><path d="M825,-145L730,-168L711,-46Z" fill="#b8cde4" stroke="#b8cde4" stroke-width="1.51"/><path d="M120,330L-3,434L116,451Z" fill="#c1d0e6" stroke="#c1d0e6" stroke-width="1.51"/><path d="M224,101L114,214L239,201Z" fill="#e4e0ef" stroke="#e4e0ef" stroke-width="1.51"/><path d="M341,931L468,930L356,815Z" fill="#6d809e" stroke="#6d809e" stroke-width="1.51"/><path d="M356,815L468,930L494,824Z" fill="#6a83a5" stroke="#6a83a5" stroke-width="1.51"/><path d="M948,818L1082,808L976,692Z" fill="#156da4" stroke="#156da4" stroke-width="1.51"/><path d="M726,945L822,943L733,826Z" fill="#386b90" stroke="#386b90" stroke-width="1.51"/><path d="M1076,74L1080,-22L974,70Z" fill="#99b1d6" stroke="#99b1d6" stroke-width="1.51"/><path d="M1205,332L1204,198L1091,192Z" fill="#7b98c1" stroke="#7b98c1" stroke-width="1.51"/><path d="M1187,685L1209,582L1084,582Z" fill="#1873ac" stroke="#1873ac" stroke-width="1.51"/><path d="M1195,438L1340,346L1205,332Z" fill="#5c88b3" stroke="#5c88b3" stroke-width="1.51"/><path d="M1310,193L1209,95L1204,198Z" fill="#849abe" stroke="#849abe" stroke-width="1.51"/><path d="M1187,685L1084,582L1078,702Z" fill="#0d70ae" stroke="#0d70ae" stroke-width="1.51"/><path d="M598,-153L472,-167L480,-49Z" fill="#d6dbeb" stroke="#d6dbeb" stroke-width="1.51"/><path d="M351,-25L221,-27L339,97Z" fill="#eae6f2" stroke="#eae6f2" stroke-width="1.51"/><path d="M224,101L126,81L114,214Z" fill="#ebe6f2" stroke="#ebe6f2" stroke-width="1.51"/><path d="M730,-168L472,-167L598,-153Z" fill="#cbd6e9" stroke="#cbd6e9" stroke-width="1.51"/><path d="M1203,-37L1080,-22L1076,74Z" fill="#98aed1" stroke="#98aed1" stroke-width="1.51"/><path d="M968,-52L945,-164L825,-145Z" fill="#a5c1dd" stroke="#a5c1dd" stroke-width="1.51"/><path d="M1066,938L1082,808L948,818Z" fill="#0e5e90" stroke="#0e5e90" stroke-width="1.51"/><path d="M244,-156L221,-27L351,-25Z" fill="#eee9f3" stroke="#eee9f3" stroke-width="1.51"/><path d="M1193,797L1187,685L1078,702Z" fill="#0566a0" stroke="#0566a0" stroke-width="1.51"/><path d="M245,703L228,825L356,815Z" fill="#8298bd" stroke="#8298bd" stroke-width="1.51"/><path d="M129,820L228,825L245,703Z" fill="#889cbf" stroke="#889cbf" stroke-width="1.51"/><path d="M221,-27L126,81L224,101Z" fill="#f0ebf4" stroke="#f0ebf4" stroke-width="1.51"/><path d="M3,582L124,566L116,451Z" fill="#a7c2de" stroke="#a7c2de" stroke-width="1.51"/><path d="M3,582L115,697L124,566Z" fill="#9cb7d8" stroke="#9cb7d8" stroke-width="1.51"/><path d="M124,566L115,697L245,578Z" fill="#98b3d6" stroke="#98b3d6" stroke-width="1.51"/><path d="M485,1047L599,1036L599,946Z" fill="#567697" stroke="#567697" stroke-width="1.51"/><path d="M248,918L341,931L356,815Z" fill="#7384a0" stroke="#7384a0" stroke-width="1.51"/><path d="M1093,-165L945,-164L968,-52Z" fill="#9fb8d9" stroke="#9fb8d9" stroke-width="1.51"/><path d="M825,-145L945,-164L730,-168Z" fill="#aec7e1" stroke="#aec7e1" stroke-width="1.51"/><path d="M823,1056L956,941L822,943Z" fill="#24658c" stroke="#24658c" stroke-width="1.51"/><path d="M822,943L956,941L948,818Z" fill="#1c618a" stroke="#1c618a" stroke-width="1.51"/><path d="M1204,198L1209,95L1091,192Z" fill="#879fc6" stroke="#879fc6" stroke-width="1.51"/><path d="M1080,-22L1093,-165L968,-52Z" fill="#9cb4d7" stroke="#9cb4d7" stroke-width="1.51"/><path d="M1310,193L1204,198L1205,332Z" fill="#7893ba" stroke="#7893ba" stroke-width="1.51"/><path d="M472,-167L363,-169L480,-49Z" fill="#dfdfee" stroke="#dfdfee" stroke-width="1.51"/><path d="M730,-168L363,-169L472,-167Z" fill="#d5dbeb" stroke="#d5dbeb" stroke-width="1.51"/><path d="M485,1047L599,946L468,930Z" fill="#5c7897" stroke="#5c7897" stroke-width="1.51"/><path d="M599,946L710,1042L726,945Z" fill="#457093" stroke="#457093" stroke-width="1.51"/><path d="M726,945L823,1056L822,943Z" fill="#33698e" stroke="#33698e" stroke-width="1.51"/><path d="M599,1036L710,1042L599,946Z" fill="#4c7294" stroke="#4c7294" stroke-width="1.51"/><path d="M-5,324L-3,434L120,330Z" fill="#ccd6e8" stroke="#ccd6e8" stroke-width="1.51"/><path d="M-5,324L120,330L114,214Z" fill="#d8dbec" stroke="#d8dbec" stroke-width="1.51"/><path d="M-10,211L-5,324L114,214Z" fill="#e2e0ee" stroke="#e2e0ee" stroke-width="1.51"/><path d="M228,825L248,918L356,815Z" fill="#7a8dab" stroke="#7a8dab" stroke-width="1.51"/><path d="M371,1069L485,1047L468,930Z" fill="#657c9a" stroke="#657c9a" stroke-width="1.51"/><path d="M124,930L248,918L228,825Z" fill="#7c8ba4" stroke="#7c8ba4" stroke-width="1.51"/><path d="M1202,917L1193,797L1082,808Z" fill="#045889" stroke="#045889" stroke-width="1.51"/><path d="M1082,808L1193,797L1078,702Z" fill="#04649e" stroke="#04649e" stroke-width="1.51"/><path d="M1331,557L1334,464L1209,582Z" fill="#2c74a3" stroke="#2c74a3" stroke-width="1.51"/><path d="M599,1036L485,1047L710,1042Z" fill="#527495" stroke="#527495" stroke-width="1.51"/><path d="M371,1069L468,930L341,931Z" fill="#6b7e9b" stroke="#6b7e9b" stroke-width="1.51"/><path d="M1,809L129,820L115,697Z" fill="#8fa3c3" stroke="#8fa3c3" stroke-width="1.51"/><path d="M115,697L129,820L245,703Z" fill="#8da3c7" stroke="#8da3c7" stroke-width="1.51"/><path d="M-3,434L3,582L116,451Z" fill="#b2c9e2" stroke="#b2c9e2" stroke-width="1.51"/><path d="M1331,557L1209,582L1312,681Z" fill="#196ca0" stroke="#196ca0" stroke-width="1.51"/><path d="M1209,582L1334,464L1195,438Z" fill="#3b7dac" stroke="#3b7dac" stroke-width="1.51"/><path d="M8,100L-10,211L114,214Z" fill="#ebe7f2" stroke="#ebe7f2" stroke-width="1.51"/><path d="M221,-27L114,-25L126,81Z" fill="#f6eff6" stroke="#f6eff6" stroke-width="1.51"/><path d="M112,-139L114,-25L221,-27Z" fill="#f7f0f7" stroke="#f7f0f7" stroke-width="1.51"/><path d="M1209,95L1203,-37L1076,74Z" fill="#93a9cb" stroke="#93a9cb" stroke-width="1.51"/><path d="M1340,346L1310,193L1205,332Z" fill="#6c8bb2" stroke="#6c8bb2" stroke-width="1.51"/><path d="M956,941L1066,938L948,818Z" fill="#125b86" stroke="#125b86" stroke-width="1.51"/><path d="M965,1050L1066,938L956,941Z" fill="#115a86" stroke="#115a86" stroke-width="1.51"/><path d="M363,-169L244,-156L351,-25Z" fill="#eae6f2" stroke="#eae6f2" stroke-width="1.51"/><path d="M1334,464L1340,346L1195,438Z" fill="#4f80ab" stroke="#4f80ab" stroke-width="1.51"/><path d="M710,1042L823,1056L726,945Z" fill="#396b90" stroke="#396b90" stroke-width="1.51"/><path d="M371,1069L823,1056L710,1042Z" fill="#4c7294" stroke="#4c7294" stroke-width="1.51"/><path d="M-127,552L3,582L-3,434Z" fill="#aec7e0" stroke="#aec7e0" stroke-width="1.51"/><path d="M8,100L114,214L126,81Z" fill="#eee9f3" stroke="#eee9f3" stroke-width="1.51"/><path d="M1320,-38L1203,-37L1209,95Z" fill="#93a5c4" stroke="#93a5c4" stroke-width="1.51"/><path d="M1312,681L1209,582L1187,685Z" fill="#0e6aa3" stroke="#0e6aa3" stroke-width="1.51"/><path d="M1461,440L1432,336L1340,346Z" fill="#537799" stroke="#537799" stroke-width="1.51"/><path d="M1203,-37L1093,-165L1080,-22Z" fill="#98add1" stroke="#98add1" stroke-width="1.51"/><path d="M945,-164L1093,-165L730,-168Z" fill="#a4c0dd" stroke="#a4c0dd" stroke-width="1.51"/><path d="M114,-25L8,100L126,81Z" fill="#f6f0f7" stroke="#f6f0f7" stroke-width="1.51"/><path d="M1193,797L1312,681L1187,685Z" fill="#04629a" stroke="#04629a" stroke-width="1.51"/><path d="M1337,806L1312,681L1193,797Z" fill="#045a8e" stroke="#045a8e" stroke-width="1.51"/><path d="M1066,938L1202,917L1082,808Z" fill="#035383" stroke="#035383" stroke-width="1.51"/><path d="M823,1056L965,1050L956,941Z" fill="#1b618a" stroke="#1b618a" stroke-width="1.51"/><path d="M485,1047L371,1069L710,1042Z" fill="#5b7897" stroke="#5b7897" stroke-width="1.51"/><path d="M233,1047L371,1069L341,931Z" fill="#72829e" stroke="#72829e" stroke-width="1.51"/><path d="M233,1047L341,931L248,918Z" fill="#75859f" stroke="#75859f" stroke-width="1.51"/><path d="M129,820L124,930L228,825Z" fill="#8292ad" stroke="#8292ad" stroke-width="1.51"/><path d="M3,582L-22,706L115,697Z" fill="#9ab2d6" stroke="#9ab2d6" stroke-width="1.51"/><path d="M-110,673L-22,706L3,582Z" fill="#9cb4d7" stroke="#9cb4d7" stroke-width="1.51"/><path d="M-132,450L-3,434L-143,329Z" fill="#c5d3e8" stroke="#c5d3e8" stroke-width="1.51"/><path d="M1203,-37L1205,-149L1093,-165Z" fill="#97abcd" stroke="#97abcd" stroke-width="1.51"/><path d="M1310,193L1340,81L1209,95Z" fill="#869aba" stroke="#869aba" stroke-width="1.51"/><path d="M1427,71L1340,81L1310,193Z" fill="#8193af" stroke="#8193af" stroke-width="1.51"/><path d="M1,809L124,930L129,820Z" fill="#8796b0" stroke="#8796b0" stroke-width="1.51"/><path d="M1090,1065L1202,917L1066,938Z" fill="#03517f" stroke="#03517f" stroke-width="1.51"/><path d="M114,-25L-10,-31L8,100Z" fill="#fcf4f9" stroke="#fcf4f9" stroke-width="1.51"/><path d="M244,-156L112,-139L221,-27Z" fill="#f4eef6" stroke="#f4eef6" stroke-width="1.51"/><path d="M1313,-150L1205,-149L1203,-37Z" fill="#93a6c5" stroke="#93a6c5" stroke-width="1.51"/><path d="M-22,706L1,809L115,697Z" fill="#94a9ca" stroke="#94a9ca" stroke-width="1.51"/><path d="M1340,346L1456,221L1310,193Z" fill="#6e85a6" stroke="#6e85a6" stroke-width="1.51"/><path d="M1461,440L1340,346L1334,464Z" fill="#4b779d" stroke="#4b779d" stroke-width="1.51"/><path d="M1461,440L1334,464L1440,581Z" fill="#346c93" stroke="#346c93" stroke-width="1.51"/><path d="M119,1049L233,1047L124,930Z" fill="#7d8ba2" stroke="#7d8ba2" stroke-width="1.51"/><path d="M124,930L233,1047L248,918Z" fill="#7b89a1" stroke="#7b89a1" stroke-width="1.51"/><path d="M112,-139L-10,-31L114,-25Z" fill="#fbf4f9" stroke="#fbf4f9" stroke-width="1.51"/><path d="M-142,198L-143,329L-10,211Z" fill="#e3e2ef" stroke="#e3e2ef" stroke-width="1.51"/><path d="M-143,329L-3,434L-5,324Z" fill="#ced8e9" stroke="#ced8e9" stroke-width="1.51"/><path d="M-143,329L-5,324L-10,211Z" fill="#dcdeed" stroke="#dcdeed" stroke-width="1.51"/><path d="M-22,706L-117,810L1,809Z" fill="#93a6c5" stroke="#93a6c5" stroke-width="1.51"/><path d="M1340,81L1320,-38L1209,95Z" fill="#8c9ebc" stroke="#8c9ebc" stroke-width="1.51"/><path d="M1427,71L1320,-38L1340,81Z" fill="#8897b1" stroke="#8897b1" stroke-width="1.51"/><path d="M1440,581L1334,464L1331,557Z" fill="#2a6c97" stroke="#2a6c97" stroke-width="1.51"/><path d="M1202,917L1337,806L1193,797Z" fill="#035382" stroke="#035382" stroke-width="1.51"/><path d="M-132,450L-127,552L-3,434Z" fill="#b6cce3" stroke="#b6cce3" stroke-width="1.51"/><path d="M-142,198L-10,211L-121,79Z" fill="#efeaf4" stroke="#efeaf4" stroke-width="1.51"/><path d="M-132,450L-143,329L-127,552Z" fill="#bdd0e6" stroke="#bdd0e6" stroke-width="1.51"/><path d="M1202,917L1334,935L1337,806Z" fill="#034871" stroke="#034871" stroke-width="1.51"/><path d="M965,1050L1090,1065L1066,938Z" fill="#0b5785" stroke="#0b5785" stroke-width="1.51"/><path d="M823,1056L1090,1065L965,1050Z" fill="#165d88" stroke="#165d88" stroke-width="1.51"/><path d="M371,1069L1090,1065L823,1056Z" fill="#386b90" stroke="#386b90" stroke-width="1.51"/><path d="M1440,581L1331,557L1312,681Z" fill="#176494" stroke="#176494" stroke-width="1.51"/><path d="M1438,695L1440,581L1312,681Z" fill="#0b5a8a" stroke="#0b5a8a" stroke-width="1.51"/><path d="M-127,552L-110,673L3,582Z" fill="#a1bcdb" stroke="#a1bcdb" stroke-width="1.51"/><path d="M1555,199L1456,221L1578,335Z" fill="#6a7e9b" stroke="#6a7e9b" stroke-width="1.51"/><path d="M1432,336L1456,221L1340,346Z" fill="#627d9e" stroke="#627d9e" stroke-width="1.51"/><path d="M-121,79L-10,211L8,100Z" fill="#f3edf5" stroke="#f3edf5" stroke-width="1.51"/><path d="M1456,221L1427,71L1310,193Z" fill="#798aa6" stroke="#798aa6" stroke-width="1.51"/><path d="M-10,-31L-121,79L8,100Z" fill="#fbf3f9" stroke="#fbf3f9" stroke-width="1.51"/><path d="M1337,806L1438,695L1312,681Z" fill="#045687" stroke="#045687" stroke-width="1.51"/><path d="M1548,569L1550,465L1461,440Z" fill="#346a8e" stroke="#346a8e" stroke-width="1.51"/><path d="M10,1045L119,1049L124,930Z" fill="#818ea4" stroke="#818ea4" stroke-width="1.51"/><path d="M233,1047L119,1049L371,1069Z" fill="#7887a0" stroke="#7887a0" stroke-width="1.51"/><path d="M-17,917L124,930L1,809Z" fill="#8592a9" stroke="#8592a9" stroke-width="1.51"/><path d="M1459,-155L1313,-150L1320,-38Z" fill="#8b99b2" stroke="#8b99b2" stroke-width="1.51"/><path d="M1320,-38L1313,-150L1203,-37Z" fill="#91a2c0" stroke="#91a2c0" stroke-width="1.51"/><path d="M1205,-149L1313,-150L1093,-165Z" fill="#95a9c9" stroke="#95a9c9" stroke-width="1.51"/><path d="M-117,810L-17,917L1,809Z" fill="#8c9bb4" stroke="#8c9bb4" stroke-width="1.51"/><path d="M-10,-31L-130,-51L-121,79Z" fill="#fff7fb" stroke="#fff7fb" stroke-width="1.51"/><path d="M112,-139L6,-171L-10,-31Z" fill="#fdf5fa" stroke="#fdf5fa" stroke-width="1.51"/><path d="M244,-156L6,-171L112,-139Z" fill="#f8f1f8" stroke="#f8f1f8" stroke-width="1.51"/><path d="M363,-169L6,-171L244,-156Z" fill="#f3edf5" stroke="#f3edf5" stroke-width="1.51"/><path d="M730,-168L6,-171L363,-169Z" fill="#e7e3f0" stroke="#e7e3f0" stroke-width="1.51"/><path d="M1090,1065L1218,1052L1202,917Z" fill="#034e7a" stroke="#034e7a" stroke-width="1.51"/><path d="M1337,806L1438,803L1438,695Z" fill="#034e7a" stroke="#034e7a" stroke-width="1.51"/><path d="M1218,1052L1334,935L1202,917Z" fill="#034973" stroke="#034973" stroke-width="1.51"/><path d="M-133,1038L-117,810L-127,552Z" fill="#91a2c0" stroke="#91a2c0" stroke-width="1.51"/><path d="M-127,552L-117,810L-110,673Z" fill="#9ab0d5" stroke="#9ab0d5" stroke-width="1.51"/><path d="M-110,673L-117,810L-22,706Z" fill="#97abcd" stroke="#97abcd" stroke-width="1.51"/><path d="M1334,935L1438,803L1337,806Z" fill="#03466e" stroke="#03466e" stroke-width="1.51"/><path d="M1548,569L1461,440L1440,581Z" fill="#28658c" stroke="#28658c" stroke-width="1.51"/><path d="M1427,71L1448,-19L1320,-38Z" fill="#8896ad" stroke="#8896ad" stroke-width="1.51"/><path d="M1549,73L1448,-19L1427,71Z" fill="#828fa5" stroke="#828fa5" stroke-width="1.51"/><path d="M1461,440L1578,335L1432,336Z" fill="#527495" stroke="#527495" stroke-width="1.51"/><path d="M1456,221L1549,73L1427,71Z" fill="#7b89a1" stroke="#7b89a1" stroke-width="1.51"/><path d="M1548,569L1440,581L1547,679Z" fill="#145c87" stroke="#145c87" stroke-width="1.51"/><path d="M-118,-151L-130,-51L-10,-31Z" fill="#fff7fb" stroke="#fff7fb" stroke-width="1.51"/><path d="M-121,79L-130,-51L-142,198Z" fill="#f8f1f8" stroke="#f8f1f8" stroke-width="1.51"/><path d="M1547,679L1440,581L1438,695Z" fill="#0a5784" stroke="#0a5784" stroke-width="1.51"/><path d="M-112,946L10,1045L-17,917Z" fill="#8591a6" stroke="#8591a6" stroke-width="1.51"/><path d="M-17,917L10,1045L124,930Z" fill="#8490a5" stroke="#8490a5" stroke-width="1.51"/><path d="M119,1049L10,1045L371,1069Z" fill="#7d8ba2" stroke="#7d8ba2" stroke-width="1.51"/><path d="M1578,335L1456,221L1432,336Z" fill="#617a99" stroke="#617a99" stroke-width="1.51"/><path d="M1550,465L1578,335L1461,440Z" fill="#487193" stroke="#487193" stroke-width="1.51"/><path d="M1548,569L1578,335L1550,465Z" fill="#3d6d91" stroke="#3d6d91" stroke-width="1.51"/><path d="M1548,569L1547,679L1578,335Z" fill="#29668d" stroke="#29668d" stroke-width="1.51"/><path d="M1438,803L1547,679L1438,695Z" fill="#034e7b" stroke="#034e7b" stroke-width="1.51"/><path d="M1550,822L1547,679L1438,803Z" fill="#034b75" stroke="#034b75" stroke-width="1.51"/><path d="M1218,1052L1316,1066L1334,935Z" fill="#03466e" stroke="#03466e" stroke-width="1.51"/><path d="M1334,935L1461,923L1438,803Z" fill="#023c5f" stroke="#023c5f" stroke-width="1.51"/><path d="M1090,1065L1316,1066L1218,1052Z" fill="#034c77" stroke="#034c77" stroke-width="1.51"/><path d="M371,1069L1316,1066L1090,1065Z" fill="#196089" stroke="#196089" stroke-width="1.51"/><path d="M6,-171L-118,-151L-10,-31Z" fill="#fff7fb" stroke="#fff7fb" stroke-width="1.51"/><path d="M-117,810L-112,946L-17,917Z" fill="#8693a8" stroke="#8693a8" stroke-width="1.51"/><path d="M-133,1038L-112,946L-117,810Z" fill="#8591a6" stroke="#8591a6" stroke-width="1.51"/><path d="M1555,199L1549,73L1456,221Z" fill="#76869f" stroke="#76869f" stroke-width="1.51"/><path d="M1448,-19L1459,-155L1320,-38Z" fill="#8895ab" stroke="#8895ab" stroke-width="1.51"/><path d="M1557,-45L1549,73L1579,-150Z" fill="#8591a6" stroke="#8591a6" stroke-width="1.51"/><path d="M1458,1050L1461,923L1334,935Z" fill="#023a5b" stroke="#023a5b" stroke-width="1.51"/><path d="M1557,-45L1459,-155L1448,-19Z" fill="#8591a6" stroke="#8591a6" stroke-width="1.51"/><path d="M1313,-150L1459,-155L1093,-165Z" fill="#90a1be" stroke="#90a1be" stroke-width="1.51"/><path d="M1461,923L1550,822L1438,803Z" fill="#023f63" stroke="#023f63" stroke-width="1.51"/><path d="M1547,679L1565,920L1578,335Z" fill="#0c5785" stroke="#0c5785" stroke-width="1.51"/><path d="M1549,73L1557,-45L1448,-19Z" fill="#8591a6" stroke="#8591a6" stroke-width="1.51"/><path d="M1579,-150L1549,73L1555,199Z" fill="#828fa5" stroke="#828fa5" stroke-width="1.51"/><path d="M-112,946L-133,1038L10,1045Z" fill="#8591a6" stroke="#8591a6" stroke-width="1.51"/><path d="M10,1045L-133,1038L371,1069Z" fill="#818ea4" stroke="#818ea4" stroke-width="1.51"/><path d="M-143,329L-133,1038L-127,552Z" fill="#9eb6d8" stroke="#9eb6d8" stroke-width="1.51"/><path d="M1461,923L1565,920L1550,822Z" fill="#02395a" stroke="#02395a" stroke-width="1.51"/><path d="M1316,1066L1458,1050L1334,935Z" fill="#023e62" stroke="#023e62" stroke-width="1.51"/><path d="M1561,1043L1565,920L1461,923Z" fill="#023858" stroke="#023858" stroke-width="1.51"/><path d="M1550,822L1565,920L1547,679Z" fill="#03466e" stroke="#03466e" stroke-width="1.51"/><path d="M1557,-45L1579,-150L1459,-155Z" fill="#8591a6" stroke="#8591a6" stroke-width="1.51"/><path d="M1578,335L1579,-150L1555,199Z" fill="#7a89a1" stroke="#7a89a1" stroke-width="1.51"/><path d="M1458,1050L1561,1043L1461,923Z" fill="#023858" stroke="#023858" stroke-width="1.51"/><path d="M1316,1066L1561,1043L1458,1050Z" fill="#023858" stroke="#023858" stroke-width="1.51"/></svg>